<svg width="100" height="100" viewBox="0 0 100 100" fill="none" xmlns="http://www.w3.org/2000/svg">
<path d="M17.7148 95.3125V4.6875H58.8672L58.9453 24.8633C58.9453 25.3125 59.1406 25.7422 59.4922 26.0352C59.7852 26.2891 60.1367 26.4062 60.5078 26.4062C60.5859 26.4062 60.6641 26.4063 60.7227 26.3867L82.3047 23.3008V95.3125H17.7148ZM80.1758 20.4688L62.0508 23.0469L61.9922 6.30859L80.1758 20.4688ZM61.3867 1.89453C61.3281 1.83594 61.2305 1.81641 61.1523 1.77734C61.0938 1.73828 61.0352 1.69922 60.9766 1.67969C60.8008 1.60156 60.6055 1.5625 60.4102 1.5625H16.1523C15.293 1.5625 14.5898 2.26562 14.5898 3.125V96.875C14.5898 97.7344 15.293 98.4375 16.1523 98.4375H83.8672C84.7266 98.4375 85.4297 97.7344 85.4297 96.875V21.3477C85.4297 20.8594 85.2148 20.4102 84.8242 20.1172L61.3867 1.89453Z" fill="#EB5757"/>
<path d="M37.2852 48.6914C39.3945 48.6914 41.1328 46.9727 41.1328 44.8438C41.1328 42.7344 39.4141 40.9961 37.2852 40.9961C35.1758 40.9961 33.4375 42.7148 33.4375 44.8438C33.4375 46.9727 35.1562 48.6914 37.2852 48.6914Z" fill="#EB5757"/>
<path d="M63.3203 48.6914C65.4297 48.6914 67.168 46.9727 67.168 44.8438C67.168 42.7344 65.4492 40.9961 63.3203 40.9961C61.1914 40.9961 59.4727 42.7148 59.4727 44.8438C59.4727 46.9727 61.1914 48.6914 63.3203 48.6914Z" fill="#EB5757"/>
<path d="M50.293 58.75C39.1992 58.75 30.1758 67.7734 30.1758 78.8672C30.1758 79.7266 30.8789 80.4297 31.7383 80.4297C32.5977 80.4297 33.3008 79.7266 33.3008 78.8672C33.3008 69.4922 40.918 61.875 50.293 61.875C59.668 61.875 67.2852 69.4922 67.2852 78.8672C67.2852 79.7266 67.9883 80.4297 68.8477 80.4297C69.707 80.4297 70.4102 79.7266 70.4102 78.8672C70.4102 67.7734 61.3867 58.75 50.293 58.75Z" fill="#EB5757"/>
</svg>
