<svg width="20" height="20" viewBox="0 0 20 20" fill="none" xmlns="http://www.w3.org/2000/svg">
<path fill-rule="evenodd" clip-rule="evenodd" d="M1.64954 11.243L15.7126 11.243L10.2031 16.751C9.71115 17.2445 9.71115 18.0494 10.2031 18.5428C10.6965 19.0363 11.503 19.0363 11.9949 18.5428L19.6316 10.9076C19.8806 10.6571 20.0013 10.3262 19.9969 9.99526C19.9969 9.98781 19.9998 9.98185 19.9998 9.97589L19.9998 9.97439C19.9998 9.96545 19.9939 9.95502 19.9939 9.94458C19.9894 9.78955 19.9611 9.63601 19.9015 9.48992C19.8642 9.40197 19.8001 9.33042 19.7435 9.25141C19.7032 9.19626 19.6808 9.13067 19.6316 9.08147L11.9949 1.44619C11.503 0.954269 10.6965 0.954269 10.2031 1.44619C9.71115 1.93961 9.71115 2.74607 10.2031 3.238L15.6739 8.7088L1.64954 8.7088C0.951898 8.7088 0.382457 9.27973 0.382457 9.97439C0.382457 10.672 0.951897 11.243 1.64954 11.243Z" fill="black"/>
</svg>
