<svg width="20" height="20" viewBox="0 0 20 20" fill="none" xmlns="http://www.w3.org/2000/svg">
<path fill-rule="evenodd" clip-rule="evenodd" d="M18.3505 8.75703H4.28736L9.79692 3.24896C10.2888 2.75554 10.2888 1.95058 9.79692 1.45716C9.30351 0.963743 8.49705 0.963743 8.00512 1.45716L0.368351 9.09244C0.119407 9.34287 -0.0013381 9.6738 0.00313395 10.0047C0.00313395 10.0122 0.000152588 10.0182 0.000152588 10.0241V10.0256C0.000152588 10.0345 0.00611532 10.045 0.00611532 10.0554C0.0105874 10.2105 0.0389104 10.364 0.0985377 10.5101C0.135805 10.598 0.199904 10.6696 0.25655 10.7486C0.296799 10.8037 0.319159 10.8693 0.368351 10.9185L8.00512 18.5538C8.49705 19.0457 9.30351 19.0457 9.79692 18.5538C10.2888 18.0604 10.2888 17.2539 9.79692 16.762L4.32612 11.2912H18.3505C19.0481 11.2912 19.6175 10.7203 19.6175 10.0256C19.6175 9.32797 19.0481 8.75703 18.3505 8.75703Z" fill="black"/>
</svg>
