<svg width="20" height="20" viewBox="0 0 20 20" fill="none" xmlns="http://www.w3.org/2000/svg">
<path d="M14.1665 3.33335H17.4998C17.9998 3.33335 18.3332 3.66669 18.3332 4.16669V17.5C18.3332 18 17.9998 18.3334 17.4998 18.3334H2.49984C1.99984 18.3334 1.6665 18 1.6665 17.5V4.16669C1.6665 3.66669 1.99984 3.33335 2.49984 3.33335H5.83317V1.66669H7.49984V3.33335H12.4998V1.66669H14.1665V3.33335ZM12.4998 5.00002H7.49984V6.66669H5.83317V5.00002H3.33317V8.33335H16.6665V5.00002H14.1665V6.66669H12.4998V5.00002ZM16.6665 10H3.33317V16.6667H16.6665V10ZM4.99984 12.5H6.6665V14.1667H4.99984V12.5ZM8.33317 12.5H14.9998V14.1667H8.33317V12.5Z" fill="black"/>
</svg>
