<svg width="141" height="50" viewBox="0 0 141 50" fill="none" xmlns="http://www.w3.org/2000/svg">
<circle cx="25" cy="25" r="25" fill="url(#paint0_linear)"/>
<path d="M12.7626 15.3796H21.8915V40H28.123V15.3796H37.252V10.1818H12.7626V15.3796Z" fill="white"/>
<path d="M70.5327 20.9925H73.8725V30H76.1523V20.9925H79.4922V19.0909H70.5327V20.9925ZM82.2434 27.0064V21.8182H80.0755V30H82.3287L85.2637 24.7958V30H87.4263V21.8182H85.1891L82.2434 27.0064ZM89.2454 30H91.3867V23.6026H94.2312V30H96.3991V21.8182H89.2454V30ZM101.907 30.1598C104.389 30.1598 105.934 28.4606 105.934 25.9411C105.934 23.4055 104.389 21.7116 101.907 21.7116C99.4247 21.7116 97.88 23.4055 97.88 25.9411C97.88 28.4606 99.4247 30.1598 101.907 30.1598ZM101.918 28.402C100.772 28.402 100.186 27.3526 100.186 25.9251C100.186 24.4975 100.772 23.4428 101.918 23.4428C103.042 23.4428 103.627 24.4975 103.627 25.9251C103.627 27.3526 103.042 28.402 101.918 28.402ZM106.617 23.6026H109.233V30H111.395V23.6026H114.032V21.8182H106.617V23.6026ZM118.843 30.1598C120.867 30.1598 122.231 29.1744 122.551 27.6562L120.452 27.5178C120.223 28.141 119.637 28.4659 118.881 28.4659C117.746 28.4659 117.027 27.7148 117.027 26.495V26.4897H122.599V25.8665C122.599 23.0859 120.915 21.7116 118.753 21.7116C116.345 21.7116 114.784 23.4215 114.784 25.9464C114.784 28.5405 116.324 30.1598 118.843 30.1598ZM117.027 25.0835C117.075 24.1513 117.783 23.4055 118.79 23.4055C119.775 23.4055 120.457 24.1087 120.463 25.0835H117.027ZM124.079 30H126.349V27.0969H127.195L129.214 30H131.91L128.985 25.8771L131.878 21.8182H129.214L126.988 24.9929H126.349V21.8182H124.079V30ZM135.202 30.1545C136.411 30.1545 137.194 29.6271 137.593 28.8654H137.657V30H139.809V24.4815C139.809 22.532 138.158 21.7116 136.336 21.7116C134.376 21.7116 133.087 22.6491 132.773 24.1406L134.871 24.3111C135.026 23.7678 135.51 23.3683 136.325 23.3683C137.098 23.3683 137.54 23.7571 137.54 24.4283V24.4602C137.54 24.9876 136.981 25.0568 135.558 25.1953C133.939 25.3445 132.485 25.8878 132.485 27.7148C132.485 29.3342 133.641 30.1545 135.202 30.1545ZM135.851 28.5884C135.154 28.5884 134.653 28.2635 134.653 27.6403C134.653 27.0011 135.18 26.6868 135.979 26.5749C136.475 26.5057 137.284 26.3885 137.556 26.2074V27.0756C137.556 27.9332 136.847 28.5884 135.851 28.5884Z" fill="black"/>
<defs>
<linearGradient id="paint0_linear" x1="25" y1="0" x2="25" y2="50" gradientUnits="userSpaceOnUse">
<stop stop-color="#595959"/>
<stop offset="1" stop-color="#141414"/>
</linearGradient>
</defs>
</svg>
