<svg width="20" height="20" viewBox="0 0 20 20" fill="none" xmlns="http://www.w3.org/2000/svg">
<path d="M14.5 12.62C15.44 11.38 16.02 9.83999 16.02 8.15999C16.02 4.09999 12.72 0.799988 8.66002 0.799988C4.60002 0.799988 1.30002 4.09999 1.30002 8.15999C1.30002 12.22 4.60002 15.52 8.66002 15.52C10.18 15.52 11.58 15.06 12.76 14.26L17.34 18.84C17.58 19.08 17.88 19.2 18.18 19.2C18.48 19.2 18.8 19.08 19.02 18.84C19.48 18.38 19.48 17.62 19.02 17.14L14.5 12.62ZM3.70002 8.15999C3.70002 5.43999 5.92002 3.19999 8.66002 3.19999C11.4 3.19999 13.62 5.43999 13.62 8.15999C13.62 10.9 11.4 13.12 8.66002 13.12C5.92002 13.12 3.70002 10.9 3.70002 8.15999Z" fill="black"/>
</svg>
