<svg width="100" height="100" viewBox="0 0 100 100" fill="none" xmlns="http://www.w3.org/2000/svg">
<path d="M99.3068 31.5254C99.1236 31.3208 98.8993 31.1571 98.6486 31.045C98.3979 30.933 98.1263 30.875 97.8517 30.875H91.254V19.6621C91.254 19.1441 91.0483 18.6473 90.682 18.281C90.3157 17.9148 89.8189 17.709 89.3009 17.709H47.1134V9.05273C47.1134 8.53473 46.9076 8.03795 46.5414 7.67167C46.1751 7.30538 45.6783 7.09961 45.1603 7.09961H10.6994C10.1814 7.09961 9.68457 7.30538 9.31828 7.67167C8.952 8.03795 8.74623 8.53473 8.74623 9.05273V30.875H2.14857C1.87395 30.875 1.6024 30.9329 1.35167 31.0449C1.10093 31.1569 0.876642 31.3206 0.693437 31.5252C0.510232 31.7298 0.37223 31.9707 0.28844 32.2322C0.204651 32.4937 0.176956 32.77 0.207165 33.043L6.66224 91.1641C6.71558 91.6416 6.94309 92.0827 7.30126 92.4031C7.65944 92.7234 8.12313 92.9005 8.60365 92.9004H91.4064C91.8869 92.9005 92.3506 92.7234 92.7088 92.4031C93.0669 92.0827 93.2944 91.6416 93.3478 91.1641L99.8029 33.043C99.8317 32.7693 99.8025 32.4927 99.717 32.2312C99.6315 31.9696 99.4917 31.7291 99.3068 31.5254ZM12.6525 11.0059H43.215V19.6621C43.215 20.1801 43.4208 20.6769 43.787 21.0432C44.1533 21.4095 44.6501 21.6152 45.1681 21.6152H87.3556V30.875H12.6525V11.0059ZM89.6486 88.9941H10.3517L4.33021 34.7813H95.6701L89.6486 88.9941Z" fill="black"/>
<path d="M35.3379 59.4727C37.4187 59.4727 39.1055 57.7859 39.1055 55.7051C39.1055 53.6243 37.4187 51.9375 35.3379 51.9375C33.2571 51.9375 31.5703 53.6243 31.5703 55.7051C31.5703 57.7859 33.2571 59.4727 35.3379 59.4727Z" fill="black"/>
<path d="M64.6621 59.4727C66.7429 59.4727 68.4297 57.7859 68.4297 55.7051C68.4297 53.6243 66.7429 51.9375 64.6621 51.9375C62.5813 51.9375 60.8945 53.6243 60.8945 55.7051C60.8945 57.7859 62.5813 59.4727 64.6621 59.4727Z" fill="black"/>
<path d="M58.3984 66.3379C58.3301 66.1191 56.6152 61.0098 50 61.0098C43.3848 61.0098 41.666 66.1191 41.6016 66.3379C41.5333 66.5378 41.4983 66.7477 41.498 66.959C41.5017 67.4238 41.671 67.872 41.9755 68.2232C42.28 68.5744 42.6998 68.8054 43.1594 68.8748C43.619 68.9442 44.0883 68.8475 44.4829 68.6019C44.8776 68.3564 45.1717 67.9781 45.3125 67.5352C45.4453 67.1797 46.4395 64.916 50 64.916C53.5605 64.916 54.5508 67.1797 54.6875 67.5352C54.8248 67.9826 55.1183 68.3659 55.5144 68.6152C55.9106 68.8645 56.3831 68.9633 56.846 68.8935C57.3088 68.8237 57.7312 68.59 58.0362 68.2349C58.3412 67.8798 58.5086 67.4271 58.5078 66.959C58.5076 66.7477 58.4726 66.5378 58.4043 66.3379H58.3984Z" fill="black"/>
</svg>
