<svg width="100" height="100" viewBox="0 0 100 100" fill="none" xmlns="http://www.w3.org/2000/svg">
<path d="M23 22C22.4477 22 22 22.4477 22 23V77C22 77.5523 22.4477 78 23 78H77C77.5523 78 78 77.5523 78 77V23C78 22.4477 77.5523 22 77 22H23ZM23 20H77C78.6569 20 80 21.3431 80 23V77C80 78.6569 78.6569 80 77 80H23C21.3431 80 20 78.6569 20 77V23C20 21.3431 21.3431 20 23 20Z" fill="black"/>
<path d="M25 79H27V82C27 82.5523 27.4477 83 28 83H82C82.5523 83 83 82.5523 83 82V28C83 27.4477 82.5523 27 82 27H79V25H82C83.6569 25 85 26.3431 85 28V82C85 83.6569 83.6569 85 82 85H28C26.3431 85 25 83.6569 25 82V79ZM27 79V82C27 82.5523 27.4477 83 28 83H82C82.5523 83 83 82.5523 83 82V28C83 27.4477 82.5523 27 82 27H79V25H82C83.6569 25 85 26.3431 85 28V82C85 83.6569 83.6569 85 82 85H28C26.3431 85 25 83.6569 25 82V79H27Z" fill="black"/>
<path d="M28.2071 39.2071C27.8166 39.5976 27.1834 39.5976 26.7929 39.2071C26.4024 38.8166 26.4024 38.1834 26.7929 37.7929L35.703 28.8827C36.0936 28.4922 36.7267 28.4922 37.1173 28.8827C37.5078 29.2733 37.5078 29.9064 37.1173 30.297L28.2071 39.2071Z" fill="black"/>
<path d="M29.2071 45.2071C28.8166 45.5976 28.1834 45.5976 27.7929 45.2071C27.4024 44.8166 27.4024 44.1834 27.7929 43.7929L36.703 34.8827C37.0936 34.4922 37.7267 34.4922 38.1173 34.8827C38.5078 35.2733 38.5078 35.9064 38.1173 36.297L29.2071 45.2071Z" fill="black"/>
<path d="M66 26C66 25.4477 66.4477 25 67 25C67.5523 25 68 25.4477 68 26V36.5C68 38.9853 65.9853 41 63.5 41C61.0147 41 59 38.9853 59 36.5V16.5C59 13.4624 61.4624 11 64.5 11C67.5376 11 70 13.4624 70 16.5V20C70 20.5523 69.5523 21 69 21C68.4477 21 68 20.5523 68 20V16.5C68 14.567 66.433 13 64.5 13C62.567 13 61 14.567 61 16.5V36.5C61 37.8807 62.1193 39 63.5 39C64.8807 39 66 37.8807 66 36.5V26Z" fill="black"/>
</svg>
