<svg width="50" height="50" viewBox="0 0 50 50" fill="none" xmlns="http://www.w3.org/2000/svg">
<g clip-path="url(#clip0)">
<path d="M25 50C20.0554 50 15.2219 48.5338 11.1106 45.7867C6.99936 43.0397 3.79501 39.1352 1.9028 34.567C0.0105809 29.9989 -0.484515 24.9722 0.480116 20.1226C1.44475 15.273 3.82578 10.8184 7.32212 7.3221C10.8185 3.82577 15.2731 1.44473 20.1226 0.480101C24.9722 -0.48453 29.9989 0.0105656 34.5671 1.90278C39.1352 3.795 43.0397 6.99934 45.7868 11.1106C48.5338 15.2219 50 20.0554 50 25C49.9924 31.6281 47.356 37.9825 42.6693 42.6693C37.9825 47.356 31.6281 49.9924 25 50ZM25 1.99974C20.451 1.99971 16.0042 3.34862 12.2218 5.87589C8.43943 8.40315 5.49142 11.9953 3.75058 16.198C2.00973 20.4007 1.55423 25.0252 2.44167 29.4868C3.32911 33.9484 5.51964 38.0467 8.73625 41.2633C11.9529 44.4799 16.0511 46.6705 20.5127 47.558C24.9742 48.4455 29.5988 47.99 33.8015 46.2492C38.0043 44.5084 41.5964 41.5605 44.1237 37.7781C46.651 33.9958 48 29.549 48 25C47.9931 18.9021 45.5677 13.0559 41.2558 8.74405C36.944 4.43217 31.0979 2.0067 25 1.99974Z" fill="#C6C6C6"/>
<path d="M35.8906 28.5928C35.7277 28.4067 35.5017 28.2876 35.2562 28.2583C35.0107 28.229 34.763 28.2916 34.561 28.4341C31.7578 30.4059 28.4268 31.4898 25.0001 31.5453C21.5733 31.4898 18.2423 30.4059 15.4391 28.4341C15.237 28.2916 14.9894 28.229 14.7439 28.2582C14.4984 28.2875 14.2724 28.4067 14.1095 28.5927C14.0168 28.6976 13.9471 28.8209 13.905 28.9545C13.863 29.0881 13.8494 29.229 13.8653 29.3681C13.8811 29.5073 13.926 29.6416 13.997 29.7623C14.0681 29.883 14.1637 29.9874 14.2777 30.0688C17.4157 32.2899 21.1558 33.5025 25.0001 33.5453C28.8443 33.5026 32.5844 32.2899 35.7224 30.0687C35.8363 29.9874 35.9319 29.8829 36.003 29.7623C36.074 29.6416 36.1189 29.5073 36.1347 29.3682C36.1506 29.229 36.1371 29.0881 36.095 28.9546C36.0529 28.821 35.9833 28.6977 35.8906 28.5928V28.5928Z" fill="#C6C6C6"/>
<path d="M20.8311 20.1206C20.6098 20.1191 20.3952 20.0446 20.2206 19.9086C20.046 19.7727 19.9211 19.5828 19.8655 19.3686C19.7004 18.7603 19.3397 18.2233 18.839 17.8403C18.3383 17.4574 17.7255 17.25 17.0952 17.25C16.4649 17.25 15.8521 17.4575 15.3514 17.8404C14.8508 18.2233 14.4901 18.7604 14.325 19.3687C14.2694 19.5829 14.1445 19.7727 13.97 19.9087C13.7954 20.0446 13.5808 20.1191 13.3595 20.1206H13.3595C13.2044 20.1198 13.0516 20.0832 12.913 20.0136C12.7744 19.944 12.6537 19.8433 12.5604 19.7194C12.4672 19.5955 12.4038 19.4517 12.3752 19.2993C12.3466 19.1469 12.3537 18.9899 12.3958 18.8406C12.6767 17.8094 13.2889 16.8992 14.1382 16.2504C14.9874 15.6015 16.0265 15.25 17.0953 15.25C18.164 15.25 19.2031 15.6015 20.0524 16.2504C20.9016 16.8992 21.5139 17.8094 21.7948 18.8406C21.8369 18.9899 21.8439 19.1469 21.8154 19.2993C21.7868 19.4517 21.7234 19.5955 21.6301 19.7194C21.5368 19.8433 21.4162 19.944 21.2776 20.0136C21.139 20.0832 20.9862 20.1198 20.8311 20.1206Z" fill="#C6C6C6"/>
<path d="M36.6417 20.1206C36.4204 20.1191 36.2058 20.0446 36.0312 19.9086C35.8566 19.7726 35.7318 19.5828 35.6761 19.3686C35.5111 18.7603 35.1503 18.2232 34.6497 17.8403C34.149 17.4574 33.5362 17.25 32.9059 17.25C32.2755 17.25 31.6628 17.4575 31.1621 17.8404C30.6614 18.2233 30.3007 18.7604 30.1356 19.3687C30.08 19.5829 29.9552 19.7727 29.7806 19.9087C29.606 20.0446 29.3914 20.1191 29.1701 20.1206H29.1701C29.015 20.1198 28.8622 20.0832 28.7236 20.0136C28.585 19.944 28.4643 19.8433 28.3711 19.7194C28.2778 19.5955 28.2144 19.4517 28.1858 19.2993C28.1573 19.1468 28.1643 18.9899 28.2064 18.8406C28.4873 17.8094 29.0995 16.8992 29.9488 16.2504C30.798 15.6015 31.8371 15.25 32.9059 15.25C33.9746 15.25 35.0137 15.6015 35.863 16.2504C36.7122 16.8992 37.3245 17.8094 37.6054 18.8406C37.6475 18.9899 37.6545 19.1468 37.626 19.2993C37.5974 19.4517 37.534 19.5955 37.4407 19.7194C37.3474 19.8433 37.2268 19.944 37.0882 20.0136C36.9496 20.0832 36.7968 20.1198 36.6417 20.1206Z" fill="#C6C6C6"/>
</g>
<defs>
<clipPath id="clip0">
<rect width="50" height="50" fill="white"/>
</clipPath>
</defs>
</svg>
